#!OML:ASF X:\für Bonn\!DataBase\2005_08_12_Daniel\c3d\Daniel.ASF
:FULLY-SPECIFIED
:DEGREES
33
root -3.76419 17.1508 -1.4143 344.562 -74.7508 -360.707
lowerback 28.0265 -14.6229 -8.83446
upperback 9.73629 -22.1213 -1.72102
thorax -1.11662 -11.6263 8.32775
lowerneck 7.81176 12.5411 -2.35571
upperneck 14.7561 16.1608 -4.92679
head 3.82344 7.32005 -1.09743
rclavicle 1.17283e-014 4.45278e-014
rhumerus -45.5749 23.6592 -73.5418
rradius 89.5316
rwrist -1.72576
rhand -25.4569 40.769
rfingers 7.12502
rthumb 1.07026 10.7919
lclavicle 1.17283e-014 4.45278e-014
lhumerus 34.5779 3.80889 78.427
lradius 126.147
lwrist 43.6055
lhand -10.8212 -12.4595
lfingers 7.12502
lthumb 15.1928 16.9627
rfemur -34.2744 -5.71791 10.1521
rtibia 85.2151
rfoot 1.46474 1.01574
rtoes -15.0433
lfemur -2.43126 -13.0724 -25.8704
ltibia 35.8507
lfoot -19.2553 1.68148
ltoes 4.99677
34
root -3.74612 17.1611 -1.38901 345.589 -74.7088 -362.393
lowerback 29.2815 -14.9219 -9.14034
upperback 10.0057 -22.716 -1.67042
thorax -1.11555 -11.9732 8.8873
lowerneck 8.00799 12.7633 -2.41921
upperneck 14.4092 16.426 -5.02727
head 3.67668 7.46246 -1.13938
rclavicle 7.11649e-014 -2.94201e-014
rhumerus -46.8298 22.8006 -73.9186
rradius 88.2079
rwrist -0.971164
rhand -25.8853 40.1965
rfingers 7.12502
rthumb 0.656542 10.2178
lclavicle 7.11649e-014 -2.94201e-014
lhumerus 35.5553 4.14983 78.4839
lradius 127.191
lwrist 43.8564
lhand -10.5467 -12.8814
lfingers 7.12502
lthumb 15.4572 16.5206
rfemur -36.7014 -6.26737 10.4521
rtibia 88.0616
rfoot 1.54083 2.18172
rtoes -15.0756
lfemur -1.59822 -13.1461 -25.654
ltibia 35.5179
lfoot -19.1043 1.68122
ltoes 5.21427
35
root -3.72946 17.173 -1.36549 346.83 -74.6367 -364.323
lowerback 30.5296 -15.2172 -9.29505
upperback 10.2943 -23.2676 -1.66567
thorax -1.15522 -12.2916 9.33712
lowerneck 8.22439 12.9457 -2.45751
upperneck 14.0592 16.6331 -5.06155
head 3.51986 7.58118 -1.167
rclavicle -3.97569e-014 4.29375e-014
rhumerus -48.0839 21.5993 -74.2551
rradius 86.7912
rwrist -0.0776268
rhand -26.3704 39.7634
rfingers 7.12502
rthumb 0.188028 9.7837
lclavicle -3.97569e-014 4.29375e-014
lhumerus 36.5683 4.30357 78.6128
lradius 128.22
lwrist 44.1095
lhand -10.1276 -13.1434
lfingers 7.12502
lthumb 15.8608 16.2269
rfemur -39.0613 -6.8373 10.8784
rtibia 90.7795
rfoot 1.53209 3.20516
rtoes -14.9252
lfemur -0.734747 -13.2339 -25.3674
ltibia 35.1842
lfoot -18.9632 1.67125
ltoes 5.37919
36
root -3.71424 17.1859 -1.34337 348.215 -74.5403 -366.428
lowerback 31.7763 -15.5102 -9.38032
upperback 10.6073 -23.799 -1.66363
thorax -1.17981 -12.6037 9.75325
lowerneck 8.33785 13.1384 -2.61605
upperneck 13.7728 16.8477 -4.9853
head 3.38128 7.69692 -1.135
rclavicle -5.28767e-014 6.67916e-014
rhumerus -49.2569 20.3301 -74.4759
rradius 85.3416
rwrist 0.784491
rhand -26.9596 39.4123
rfingers 7.12502
rthumb -0.381033 9.43291
lclavicle -5.28767e-014 6.67916e-014
lhumerus 37.4957 4.40331 78.6661
lradius 129.241
lwrist 44.3434
lhand -9.72957 -13.4224
lfingers 7.12502
lthumb 16.2441 15.9171
rfemur -41.3658 -7.4363 11.4037
rtibia 93.3756
rfoot 1.40266 4.15076
rtoes -15.0602
lfemur 0.162981 -13.3213 -25.0207
ltibia 34.8379
lfoot -18.8408 1.61967
ltoes 5.4295
37
root -3.70042 17.1997 -1.32256 349.626 -74.4079 -368.585
lowerback 33.2655 -15.7696 -9.40577
upperback 10.658 -24.3274 -1.28167
thorax -1.34694 -12.8997 9.87535
lowerneck 8.47192 13.3026 -2.79046
upperneck 13.4633 17.0178 -4.84359
head 3.22163 7.79412 -1.08419
rclavicle 9.6013e-014 5.64548e-014
rhumerus -50.3224 19.0247 -74.6336
rradius 83.7336
rwrist 1.62912
rhand -27.7383 39.2016
rfingers 7.12502
rthumb -1.13315 9.22491
lclavicle 9.6013e-014 5.64548e-014
lhumerus 38.3247 4.38291 78.6787
lradius 130.217
lwrist 44.5766
lhand -9.2475 -13.6552
lfingers 7.12502
lthumb 16.7082 15.6458
rfemur -43.6223 -8.03205 11.9988
rtibia 95.8731
rfoot 1.1892 4.95211
rtoes -15.4499
lfemur 1.08692 -13.4126 -24.6483
ltibia 34.4898
lfoot -18.6851 1.55312
ltoes 5.59283
38
root -3.68633 17.211 -1.30315 351.051 -74.2528 -370.764
lowerback 34.5681 -16.0347 -9.38696
upperback 10.9379 -24.7987 -1.25499
thorax -1.41803 -13.1768 10.2175
lowerneck 8.47948 13.4592 -3.04163
upperneck 13.224 17.1837 -4.6629
head 3.09697 7.88194 -1.00115
rclavicle 9.08446e-014 -6.36111e-014
rhumerus -51.2803 17.6526 -74.6298
rradius 82.0747
rwrist 2.40261
rhand -28.4699 39.2195
rfingers 7.12502
rthumb -1.83975 9.24768
lclavicle 9.08446e-014 -6.36111e-014
lhumerus 39.1082 4.36462 78.7032
lradius 131.186
lwrist 44.7601
lhand -8.78491 -13.8205
lfingers 7.12502
lthumb 17.1535 15.4423
rfemur -45.8767 -8.60723 12.6577
rtibia 98.3064
rfoot 0.984922 5.65349
rtoes -15.8417
lfemur 2.01398 -13.5096 -24.2588
ltibia 34.1322
lfoot -18.5277 1.49403
ltoes 5.65174
39
root -3.67183 17.2236 -1.28355 352.452 -74.0784 -372.905
lowerback 35.8526 -16.2993 -9.30165
upperback 11.2043 -25.242 -1.25369
thorax -1.51991 -13.4325 10.5072
lowerneck 8.48617 13.6048 -3.29029
upperneck 12.9888 17.3339 -4.43596
head 2.96888 7.96373 -0.90572
rclavicle -3.85642e-014 6.12257e-014
rhumerus -52.217 16.3149 -74.5851
rradius 80.3906
rwrist 2.94765
rhand -29.2185 39.4583
rfingers 7.12502
rthumb -2.56276 9.49399
lclavicle -3.85642e-014 6.12257e-014
lhumerus 39.7714 4.34114 78.7093
lradius 132.173
lwrist 44.9714
lhand -8.28714 -13.9134
lfingers 7.12502
lthumb 17.6325 15.3071
rfemur -48.1576 -9.18614 13.3471
rtibia 100.679
rfoot 0.773721 6.29237
rtoes -16.2778
lfemur 2.93193 -13.6035 -23.8569
ltibia 33.7545
lfoot -18.357 1.4092
ltoes 5.81516
40
root -3.65771 17.2365 -1.26487 353.725 -73.889 -374.936
lowerback 37.1424 -16.54 -9.241
upperback 11.4956 -25.6639 -1.27741
thorax -1.58504 -13.6841 10.7719
lowerneck 8.45878 13.7428 -3.48808
upperneck 12.7494 17.4843 -4.21601
head 2.85055 8.04878 -0.818581
rclavicle -5.60573e-014 1.74931e-014
rhumerus -53.0732 15.1757 -74.4998
rradius 78.6782
rwrist 3.27813
rhand -29.9253 39.8239
rfingers 7.12502
rthumb -3.24535 9.86887
lclavicle -5.60573e-014 1.74931e-014
lhumerus 40.3849 4.29552 78.7075
lradius 133.111
lwrist 45.0801
lhand -7.76235 -13.9474
lfingers 7.12502
lthumb 18.1375 15.2269
rfemur -50.4286 -9.75971 14.0467
rtibia 102.95
rfoot 0.572254 6.85855
rtoes -16.5313
lfemur 3.88676 -13.6732 -23.4729
ltibia 33.3401
lfoot -18.1513 1.32344
ltoes 5.8277
41
root -3.64433 17.2507 -1.24699 354.888 -73.7011 -376.834
lowerback 38.3836 -16.7566 -9.19601
upperback 11.8068 -26.0573 -1.31401
thorax -1.6005 -13.929 11.0051
lowerneck 8.35955 13.8756 -3.69747
upperneck 12.522 17.6369 -3.99175
head 2.74678 8.1341 -0.724346
rclavicle -3.89618e-014 7.71285e-014
rhumerus -53.8605 14.1599 -74.3973
rradius 76.9696
rwrist 3.36848
rhand -30.4102 40.2831
rfingers 7.12502
rthumb -3.71358 10.3357
lclavicle -3.89618e-014 7.71285e-014
lhumerus 41.0025 4.16163 78.704
lradius 133.981
lwrist 45.0686
lhand -7.24943 -14.0064
lfingers 7.12502
lthumb 18.6309 15.1214
rfemur -52.7798 -10.3512 14.7646
rtibia 105.141
rfoot 0.393949 7.38981
rtoes -16.5978
lfemur 4.84402 -13.7336 -23.1061
ltibia 32.874
lfoot -17.9434 1.23559
ltoes 5.91431
42
root -3.63275 17.2674 -1.22896 355.821 -73.4754 -378.519
lowerback 39.6745 -16.956 -9.18906
upperback 12.0751 -26.4575 -1.35358
thorax -1.53523 -14.1868 11.1721
lowerneck 8.28909 13.992 -3.81186
upperneck 12.2299 17.7766 -3.79745
head 2.62789 8.22153 -0.657323
rclavicle 1.04163e-013 2.8625e-014
rhumerus -54.5628 13.1751 -74.2909
rradius 75.3018
rwrist 3.35975
rhand -30.6359 40.8173
rfingers 7.12502
rthumb -3.93156 10.8738
lclavicle 1.04163e-013 2.8625e-014
lhumerus 41.7517 4.00714 78.6441
lradius 134.662
lwrist 44.9383
lhand -6.72194 -14.0646
lfingers 7.12502
lthumb 19.1382 15.0138
rfemur -55.0891 -11.0083 15.4731
rtibia 107.221
rfoot 0.1644 7.88
rtoes -16.8183
lfemur 5.85259 -13.8067 -22.7986
ltibia 32.3634
lfoot -17.703 1.1827
ltoes 5.8987
43
root -3.62259 17.2834 -1.2106 356.512 -73.2249 -379.971
lowerback 40.8604 -17.1363 -9.22486
upperback 12.4555 -26.8388 -1.46094
thorax -1.43164 -14.4451 11.328
lowerneck 8.1782 14.09 -3.8706
upperneck 11.9823 17.9022 -3.59813
head 2.53543 8.30215 -0.592451
rclavicle -1.59028e-014 -4.45278e-014
rhumerus -55.2708 12.2538 -74.1731
rradius 73.73
rwrist 3.27518
rhand -30.6632 41.2321
rfingers 7.12502
rthumb -3.95793 11.2891
lclavicle -1.59028e-014 -4.45278e-014
lhumerus 42.5999 3.84892 78.5907
lradius 135.152
lwrist 44.8336
lhand -6.18383 -14.1116
lfingers 7.12502
lthumb 19.6556 14.9147
rfemur -57.4161 -11.7814 16.1652
rtibia 109.236
rfoot -0.0817875 8.38065
rtoes -17.2263
lfemur 6.88895 -13.8543 -22.5474
ltibia 31.8382
lfoot -17.4445 1.091
ltoes 5.95977
44
root -3.61353 17.2985 -1.19169 357.023 -73.0367 -381.171
lowerback 41.9317 -17.2729 -9.29235
upperback 12.8559 -27.1726 -1.60959
thorax -1.27511 -14.6846 11.4116
lowerneck 7.99988 14.1485 -3.76907
upperneck 11.7606 18.0006 -3.4422
head 2.4819 8.37451 -0.555823
rclavicle -6.32135e-014 -3.18055e-014
rhumerus -55.9443 11.3029 -74.0819
rradius 72.1824
rwrist 3.19146
rhand -30.4323 41.6002
rfingers 7.12502
rthumb -3.73491 11.6532
lclavicle -6.32135e-014 -3.18055e-014
lhumerus 43.4275 3.65665 78.5129
lradius 135.588
lwrist 44.7153
lhand -5.66713 -14.1923
lfingers 7.12502
lthumb 20.1523 14.7825
rfemur -59.8695 -12.5176 16.8542
rtibia 111.173
rfoot -0.21618 8.87145
rtoes -17.2983
lfemur 7.84755 -13.8589 -22.3514
ltibia 31.3354
lfoot -17.2186 1.00306
ltoes 5.93118
45
root -3.60364 17.3085 -1.17217 357.392 -72.8716 -382.152
lowerback 42.9514 -17.3974 -9.38027
upperback 13.2153 -27.4934 -1.75833
thorax -1.13362 -14.912 11.4937
lowerneck 7.73056 14.1973 -3.62001
upperneck 11.6422 18.0977 -3.26808
head 2.48084 8.44256 -0.509403
rclavicle 5.64548e-014 2.8625e-014
rhumerus -56.6014 10.3989 -73.9734
rradius 70.6602
rwrist 3.17266
rhand -30.0923 41.8814
rfingers 7.12502
rthumb -3.40663 11.9288
lclavicle 5.64548e-014 2.8625e-014
lhumerus 44.0884 3.51129 78.375
lradius 135.966
lwrist 44.6326
lhand -5.21247 -14.4067
lfingers 7.12502
lthumb 20.5893 14.5214
rfemur -62.4686 -13.2374 17.5516
rtibia 113.055
rfoot -0.371559 9.32145
rtoes -17.1796
lfemur 8.68986 -13.8497 -22.2059
ltibia 30.8911
lfoot -16.9988 0.927674
ltoes 6.05128
